<svg
  width="358"
  height="78"
  viewBox="0 0 358 78"
  fill="none"
  xmlns="http://www.w3.org/2000/svg"
>
  <g filter="url(#filter0_d_2_2)">
    <mask
      id="path-1-outside-1_2_2"
      maskUnits="userSpaceOnUse"
      x="3.72"
      y="-0.100479"
      width="350"
      height="70"
      fill="black"
    >
      <rect fill="white" x="3.72" y="-0.100479" width="350" height="70" />
      <path
        d="M5 68.8995V61.2195H43.4V45.3795H5V23.7795L13.64 15.1395H52.04V22.8195H13.64V37.6995H52.04V60.5475L43.688 68.8995H5ZM63.0425 6.49952L71.6825 1.69952V17.0595H96.6425V24.7395H71.6825V61.2195H96.6425V68.8995H71.6825L63.0425 60.2595V6.49952ZM104.293 68.8995V23.7795L112.933 15.1395H141.733V22.8195H112.933V68.8995H104.293ZM148.426 60.2595V38.1795L186.826 37.2195V22.8195H150.346V15.1395H186.826L195.466 23.7795V68.8995H157.066L148.426 60.2595ZM157.066 45.8595V61.2195H186.826V43.9395L157.066 45.8595ZM206.949 6.49952L215.589 1.69952V17.0595H240.549V24.7395H215.589V61.2195H240.549V68.8995H215.589L206.949 60.2595V6.49952Z"
      />
      <path
        d="M247.719 60.2595V23.7795L256.359 15.1395H286.119L294.759 23.7795V60.2595L286.119 68.8995H256.359L247.719 60.2595ZM256.359 61.2195H286.119V22.8195H256.359V61.2195ZM305.281 68.8995V61.2195H343.681V45.3795H305.281V23.7795L313.921 15.1395H352.321V22.8195H313.921V37.6995H352.321V60.5475L343.969 68.8995H305.281Z"
      />
    </mask>
    <path
      d="M5 68.8995V61.2195H43.4V45.3795H5V23.7795L13.64 15.1395H52.04V22.8195H13.64V37.6995H52.04V60.5475L43.688 68.8995H5ZM63.0425 6.49952L71.6825 1.69952V17.0595H96.6425V24.7395H71.6825V61.2195H96.6425V68.8995H71.6825L63.0425 60.2595V6.49952ZM104.293 68.8995V23.7795L112.933 15.1395H141.733V22.8195H112.933V68.8995H104.293ZM148.426 60.2595V38.1795L186.826 37.2195V22.8195H150.346V15.1395H186.826L195.466 23.7795V68.8995H157.066L148.426 60.2595ZM157.066 45.8595V61.2195H186.826V43.9395L157.066 45.8595ZM206.949 6.49952L215.589 1.69952V17.0595H240.549V24.7395H215.589V61.2195H240.549V68.8995H215.589L206.949 60.2595V6.49952Z"
      fill="#2E2E2E"
    />
    <path
      d="M247.719 60.2595V23.7795L256.359 15.1395H286.119L294.759 23.7795V60.2595L286.119 68.8995H256.359L247.719 60.2595ZM256.359 61.2195H286.119V22.8195H256.359V61.2195ZM305.281 68.8995V61.2195H343.681V45.3795H305.281V23.7795L313.921 15.1395H352.321V22.8195H313.921V37.6995H352.321V60.5475L343.969 68.8995H305.281Z"
      fill="white"
    />
    <path
      d="M5 68.8995H4V69.8995H5V68.8995ZM5 61.2195V60.2195H4V61.2195H5ZM43.4 61.2195V62.2195H44.4V61.2195H43.4ZM43.4 45.3795H44.4V44.3795H43.4V45.3795ZM5 45.3795H4V46.3795H5V45.3795ZM5 23.7795L4.29289 23.0724L4 23.3653V23.7795H5ZM13.64 15.1395V14.1395H13.2258L12.9329 14.4324L13.64 15.1395ZM52.04 15.1395H53.04V14.1395H52.04V15.1395ZM52.04 22.8195V23.8195H53.04V22.8195H52.04ZM13.64 22.8195V21.8195H12.64V22.8195H13.64ZM13.64 37.6995H12.64V38.6995H13.64V37.6995ZM52.04 37.6995H53.04V36.6995H52.04V37.6995ZM52.04 60.5475L52.7471 61.2546L53.04 60.9617V60.5475H52.04ZM43.688 68.8995V69.8995H44.1022L44.3951 69.6066L43.688 68.8995ZM5 68.8995H6V61.2195H5H4V68.8995H5ZM5 61.2195V62.2195H43.4V61.2195V60.2195H5V61.2195ZM43.4 61.2195H44.4V45.3795H43.4H42.4V61.2195H43.4ZM43.4 45.3795V44.3795H5V45.3795V46.3795H43.4V45.3795ZM5 45.3795H6V23.7795H5H4V45.3795H5ZM5 23.7795L5.70711 24.4866L14.3471 15.8466L13.64 15.1395L12.9329 14.4324L4.29289 23.0724L5 23.7795ZM13.64 15.1395V16.1395H52.04V15.1395V14.1395H13.64V15.1395ZM52.04 15.1395H51.04V22.8195H52.04H53.04V15.1395H52.04ZM52.04 22.8195V21.8195H13.64V22.8195V23.8195H52.04V22.8195ZM13.64 22.8195H12.64V37.6995H13.64H14.64V22.8195H13.64ZM13.64 37.6995V38.6995H52.04V37.6995V36.6995H13.64V37.6995ZM52.04 37.6995H51.04V60.5475H52.04H53.04V37.6995H52.04ZM52.04 60.5475L51.3329 59.8404L42.9809 68.1924L43.688 68.8995L44.3951 69.6066L52.7471 61.2546L52.04 60.5475ZM43.688 68.8995V67.8995H5V68.8995V69.8995H43.688V68.8995ZM63.0425 6.49952L62.5569 5.62536L62.0425 5.91111V6.49952H63.0425ZM71.6825 1.69952H72.6825V1.67229e-06L71.1969 0.825359L71.6825 1.69952ZM71.6825 17.0595H70.6825V18.0595H71.6825V17.0595ZM96.6425 17.0595H97.6425V16.0595H96.6425V17.0595ZM96.6425 24.7395V25.7395H97.6425V24.7395H96.6425ZM71.6825 24.7395V23.7395H70.6825V24.7395H71.6825ZM71.6825 61.2195H70.6825V62.2195H71.6825V61.2195ZM96.6425 61.2195H97.6425V60.2195H96.6425V61.2195ZM96.6425 68.8995V69.8995H97.6425V68.8995H96.6425ZM71.6825 68.8995L70.9754 69.6066L71.2683 69.8995H71.6825V68.8995ZM63.0425 60.2595H62.0425V60.6737L62.3354 60.9666L63.0425 60.2595ZM63.0425 6.49952L63.5281 7.37367L72.1681 2.57367L71.6825 1.69952L71.1969 0.825359L62.5569 5.62536L63.0425 6.49952ZM71.6825 1.69952H70.6825V17.0595H71.6825H72.6825V1.69952H71.6825ZM71.6825 17.0595V18.0595H96.6425V17.0595V16.0595H71.6825V17.0595ZM96.6425 17.0595H95.6425V24.7395H96.6425H97.6425V17.0595H96.6425ZM96.6425 24.7395V23.7395H71.6825V24.7395V25.7395H96.6425V24.7395ZM71.6825 24.7395H70.6825V61.2195H71.6825H72.6825V24.7395H71.6825ZM71.6825 61.2195V62.2195H96.6425V61.2195V60.2195H71.6825V61.2195ZM96.6425 61.2195H95.6425V68.8995H96.6425H97.6425V61.2195H96.6425ZM96.6425 68.8995V67.8995H71.6825V68.8995V69.8995H96.6425V68.8995ZM71.6825 68.8995L72.3896 68.1924L63.7496 59.5524L63.0425 60.2595L62.3354 60.9666L70.9754 69.6066L71.6825 68.8995ZM63.0425 60.2595H64.0425V6.49952H63.0425H62.0425V60.2595H63.0425ZM104.293 68.8995H103.293V69.8995H104.293V68.8995ZM104.293 23.7795L103.585 23.0724L103.293 23.3653V23.7795H104.293ZM112.933 15.1395V14.1395H112.518L112.225 14.4324L112.933 15.1395ZM141.733 15.1395H142.733V14.1395H141.733V15.1395ZM141.733 22.8195V23.8195H142.733V22.8195H141.733ZM112.933 22.8195V21.8195H111.933V22.8195H112.933ZM112.933 68.8995V69.8995H113.933V68.8995H112.933ZM104.293 68.8995H105.293V23.7795H104.293H103.293V68.8995H104.293ZM104.293 23.7795L105 24.4866L113.64 15.8466L112.933 15.1395L112.225 14.4324L103.585 23.0724L104.293 23.7795ZM112.933 15.1395V16.1395H141.733V15.1395V14.1395H112.933V15.1395ZM141.733 15.1395H140.733V22.8195H141.733H142.733V15.1395H141.733ZM141.733 22.8195V21.8195H112.933V22.8195V23.8195H141.733V22.8195ZM112.933 22.8195H111.933V68.8995H112.933H113.933V22.8195H112.933ZM112.933 68.8995V67.8995H104.293V68.8995V69.8995H112.933V68.8995ZM148.426 60.2595H147.426V60.6737L147.719 60.9666L148.426 60.2595ZM148.426 38.1795L148.401 37.1798L147.426 37.2042V38.1795H148.426ZM186.826 37.2195L186.851 38.2192L187.826 38.1948V37.2195H186.826ZM186.826 22.8195H187.826V21.8195H186.826V22.8195ZM150.346 22.8195H149.346V23.8195H150.346V22.8195ZM150.346 15.1395V14.1395H149.346V15.1395H150.346ZM186.826 15.1395L187.533 14.4324L187.24 14.1395H186.826V15.1395ZM195.466 23.7795H196.466V23.3653L196.173 23.0724L195.466 23.7795ZM195.466 68.8995V69.8995H196.466V68.8995H195.466ZM157.066 68.8995L156.359 69.6066L156.652 69.8995H157.066V68.8995ZM157.066 45.8595L157.002 44.8616L156.066 44.922V45.8595H157.066ZM157.066 61.2195H156.066V62.2195H157.066V61.2195ZM186.826 61.2195V62.2195H187.826V61.2195H186.826ZM186.826 43.9395H187.826V42.8729L186.762 42.9416L186.826 43.9395ZM148.426 60.2595H149.426V38.1795H148.426H147.426V60.2595H148.426ZM148.426 38.1795L148.451 39.1792L186.851 38.2192L186.826 37.2195L186.801 36.2198L148.401 37.1798L148.426 38.1795ZM186.826 37.2195H187.826V22.8195H186.826H185.826V37.2195H186.826ZM186.826 22.8195V21.8195H150.346V22.8195V23.8195H186.826V22.8195ZM150.346 22.8195H151.346V15.1395H150.346H149.346V22.8195H150.346ZM150.346 15.1395V16.1395H186.826V15.1395V14.1395H150.346V15.1395ZM186.826 15.1395L186.119 15.8466L194.759 24.4866L195.466 23.7795L196.173 23.0724L187.533 14.4324L186.826 15.1395ZM195.466 23.7795H194.466V68.8995H195.466H196.466V23.7795H195.466ZM195.466 68.8995V67.8995H157.066V68.8995V69.8995H195.466V68.8995ZM157.066 68.8995L157.773 68.1924L149.133 59.5524L148.426 60.2595L147.719 60.9666L156.359 69.6066L157.066 68.8995ZM157.066 45.8595H156.066V61.2195H157.066H158.066V45.8595H157.066ZM157.066 61.2195V62.2195H186.826V61.2195V60.2195H157.066V61.2195ZM186.826 61.2195H187.826V43.9395H186.826H185.826V61.2195H186.826ZM186.826 43.9395L186.762 42.9416L157.002 44.8616L157.066 45.8595L157.131 46.8574L186.891 44.9374L186.826 43.9395ZM206.949 6.49952L206.463 5.62536L205.949 5.91111V6.49952H206.949ZM215.589 1.69952H216.589V1.67229e-06L215.103 0.825359L215.589 1.69952ZM215.589 17.0595H214.589V18.0595H215.589V17.0595ZM240.549 17.0595H241.549V16.0595H240.549V17.0595ZM240.549 24.7395V25.7395H241.549V24.7395H240.549ZM215.589 24.7395V23.7395H214.589V24.7395H215.589ZM215.589 61.2195H214.589V62.2195H215.589V61.2195ZM240.549 61.2195H241.549V60.2195H240.549V61.2195ZM240.549 68.8995V69.8995H241.549V68.8995H240.549ZM215.589 68.8995L214.882 69.6066L215.175 69.8995H215.589V68.8995ZM206.949 60.2595H205.949V60.6737L206.242 60.9666L206.949 60.2595ZM206.949 6.49952L207.434 7.37367L216.074 2.57367L215.589 1.69952L215.103 0.825359L206.463 5.62536L206.949 6.49952ZM215.589 1.69952H214.589V17.0595H215.589H216.589V1.69952H215.589ZM215.589 17.0595V18.0595H240.549V17.0595V16.0595H215.589V17.0595ZM240.549 17.0595H239.549V24.7395H240.549H241.549V17.0595H240.549ZM240.549 24.7395V23.7395H215.589V24.7395V25.7395H240.549V24.7395ZM215.589 24.7395H214.589V61.2195H215.589H216.589V24.7395H215.589ZM215.589 61.2195V62.2195H240.549V61.2195V60.2195H215.589V61.2195ZM240.549 61.2195H239.549V68.8995H240.549H241.549V61.2195H240.549ZM240.549 68.8995V67.8995H215.589V68.8995V69.8995H240.549V68.8995ZM215.589 68.8995L216.296 68.1924L207.656 59.5524L206.949 60.2595L206.242 60.9666L214.882 69.6066L215.589 68.8995ZM206.949 60.2595H207.949V6.49952H206.949H205.949V60.2595H206.949ZM247.719 60.2595H246.719V60.6737L247.012 60.9666L247.719 60.2595ZM247.719 23.7795L247.012 23.0724L246.719 23.3653V23.7795H247.719ZM256.359 15.1395V14.1395H255.945L255.652 14.4324L256.359 15.1395ZM286.119 15.1395L286.826 14.4324L286.533 14.1395H286.119V15.1395ZM294.759 23.7795H295.759V23.3653L295.466 23.0724L294.759 23.7795ZM294.759 60.2595L295.466 60.9666L295.759 60.6737V60.2595H294.759ZM286.119 68.8995V69.8995H286.533L286.826 69.6066L286.119 68.8995ZM256.359 68.8995L255.652 69.6066L255.945 69.8995H256.359V68.8995ZM256.359 61.2195H255.359V62.2195H256.359V61.2195ZM286.119 61.2195V62.2195H287.119V61.2195H286.119ZM286.119 22.8195H287.119V21.8195H286.119V22.8195ZM256.359 22.8195V21.8195H255.359V22.8195H256.359ZM247.719 60.2595H248.719V23.7795H247.719H246.719V60.2595H247.719ZM247.719 23.7795L248.426 24.4866L257.066 15.8466L256.359 15.1395L255.652 14.4324L247.012 23.0724L247.719 23.7795ZM256.359 15.1395V16.1395H286.119V15.1395V14.1395H256.359V15.1395ZM286.119 15.1395L285.412 15.8466L294.052 24.4866L294.759 23.7795L295.466 23.0724L286.826 14.4324L286.119 15.1395ZM294.759 23.7795H293.759V60.2595H294.759H295.759V23.7795H294.759ZM294.759 60.2595L294.052 59.5524L285.412 68.1924L286.119 68.8995L286.826 69.6066L295.466 60.9666L294.759 60.2595ZM286.119 68.8995V67.8995H256.359V68.8995V69.8995H286.119V68.8995ZM256.359 68.8995L257.066 68.1924L248.426 59.5524L247.719 60.2595L247.012 60.9666L255.652 69.6066L256.359 68.8995ZM256.359 61.2195V62.2195H286.119V61.2195V60.2195H256.359V61.2195ZM286.119 61.2195H287.119V22.8195H286.119H285.119V61.2195H286.119ZM286.119 22.8195V21.8195H256.359V22.8195V23.8195H286.119V22.8195ZM256.359 22.8195H255.359V61.2195H256.359H257.359V22.8195H256.359ZM305.281 68.8995H304.281V69.8995H305.281V68.8995ZM305.281 61.2195V60.2195H304.281V61.2195H305.281ZM343.681 61.2195V62.2195H344.681V61.2195H343.681ZM343.681 45.3795H344.681V44.3795H343.681V45.3795ZM305.281 45.3795H304.281V46.3795H305.281V45.3795ZM305.281 23.7795L304.574 23.0724L304.281 23.3653V23.7795H305.281ZM313.921 15.1395V14.1395H313.507L313.214 14.4324L313.921 15.1395ZM352.321 15.1395H353.321V14.1395H352.321V15.1395ZM352.321 22.8195V23.8195H353.321V22.8195H352.321ZM313.921 22.8195V21.8195H312.921V22.8195H313.921ZM313.921 37.6995H312.921V38.6995H313.921V37.6995ZM352.321 37.6995H353.321V36.6995H352.321V37.6995ZM352.321 60.5475L353.028 61.2546L353.321 60.9617V60.5475H352.321ZM343.969 68.8995V69.8995H344.383L344.676 69.6066L343.969 68.8995ZM305.281 68.8995H306.281V61.2195H305.281H304.281V68.8995H305.281ZM305.281 61.2195V62.2195H343.681V61.2195V60.2195H305.281V61.2195ZM343.681 61.2195H344.681V45.3795H343.681H342.681V61.2195H343.681ZM343.681 45.3795V44.3795H305.281V45.3795V46.3795H343.681V45.3795ZM305.281 45.3795H306.281V23.7795H305.281H304.281V45.3795H305.281ZM305.281 23.7795L305.988 24.4866L314.628 15.8466L313.921 15.1395L313.214 14.4324L304.574 23.0724L305.281 23.7795ZM313.921 15.1395V16.1395H352.321V15.1395V14.1395H313.921V15.1395ZM352.321 15.1395H351.321V22.8195H352.321H353.321V15.1395H352.321ZM352.321 22.8195V21.8195H313.921V22.8195V23.8195H352.321V22.8195ZM313.921 22.8195H312.921V37.6995H313.921H314.921V22.8195H313.921ZM313.921 37.6995V38.6995H352.321V37.6995V36.6995H313.921V37.6995ZM352.321 37.6995H351.321V60.5475H352.321H353.321V37.6995H352.321ZM352.321 60.5475L351.614 59.8404L343.262 68.1924L343.969 68.8995L344.676 69.6066L353.028 61.2546L352.321 60.5475ZM343.969 68.8995V67.8995H305.281V68.8995V69.8995H343.969V68.8995Z"
      fill="#353434"
      mask="url(#path-1-outside-1_2_2)"
    />
  </g>
  <defs>
    <filter
      id="filter0_d_2_2"
      x="0"
      y="0"
      width="357.321"
      height="77.8995"
      filterUnits="userSpaceOnUse"
      color-interpolation-filters="sRGB"
    >
      <feFlood flood-opacity="0" result="BackgroundImageFix" />
      <feColorMatrix
        in="SourceAlpha"
        type="matrix"
        values="0 0 0 0 0 0 0 0 0 0 0 0 0 0 0 0 0 0 127 0"
        result="hardAlpha"
      />
      <feOffset dy="4" />
      <feGaussianBlur stdDeviation="2" />
      <feComposite in2="hardAlpha" operator="out" />
      <feColorMatrix
        type="matrix"
        values="0 0 0 0 0 0 0 0 0 0 0 0 0 0 0 0 0 0 0.25 0"
      />
      <feBlend
        mode="normal"
        in2="BackgroundImageFix"
        result="effect1_dropShadow_2_2"
      />
      <feBlend
        mode="normal"
        in="SourceGraphic"
        in2="effect1_dropShadow_2_2"
        result="shape"
      />
    </filter>
  </defs>
</svg>
